<svg xmlns="http://www.w3.org/2000/svg" height="800" width="1200" viewBox="-48.36621 -20.370125 419.17382 122.22075"><g fill="#00a1e3"><path d="M203.879 68.2813h-8.758v-6.8399c-4.8007 4.1992-10.9218 6.8398-17.7616 6.8398-14.6407 0-26.5196-11.8789-26.5196-26.5195 0-14.6406 11.879-26.5195 26.5196-26.5195 14.6406 0 26.5195 11.8789 26.5195 26.5195zM177.4804 6c-19.4414 0-35.1602 15.8398-35.1602 35.1602 0 19.4414 15.7188 35.1601 35.1602 35.1601 5.2812 0 10.3203-1.1992 14.7617-3.2383l2.3984.961 17.879 7.4375V41.1602C212.5195 21.8398 196.8007 6 177.4804 6M31.0781 62.2813c-11.3984 0-20.6367-9.3594-20.6367-20.7579 0-11.4023 9.2383-20.7617 20.6367-20.7617 11.5235 0 20.7617 9.3594 20.7617 20.7617 0 11.3985-9.2382 20.7578-20.7617 20.7578m0-51.8398C13.922 10.4414 0 24.3633 0 41.5234c0 17.1602 13.9219 31.0782 31.0781 31.0782 8.043 0 15.2422-3 20.7617-7.918v7.918h10.4415V41.5234c0-17.1601-13.922-31.082-31.2032-31.082m39.4805 62.1602h10.3203V0H70.5586zm241.5624 0h10.3204V0h-10.3203zm0 0"/><path d="M120.2422 62.2813c-11.4024 0-20.6406-9.3594-20.6406-20.7579 0-11.4023 9.2382-20.7617 20.6406-20.7617 5.7578 0 10.918 2.3985 14.7578 6.1211l7.3203-7.3203c-5.6406-5.6406-13.4414-9.121-22.0781-9.121-17.1602 0-31.082 13.9218-31.082 31.082 0 17.16 13.9218 31.078 31.082 31.078 8.6367 0 16.4375-3.4804 22.0781-9.121L135 56.1602c-3.8398 3.7226-9 6.121-14.7578 6.121m111-51.8398V0h-10.3203v72.6016h10.3203V20.7617h10.3164V10.4414m31.082 10.3203c9.7188 0 17.7617 6.6016 20.1602 15.6016h-40.1992c2.3984-9 10.4375-15.6016 20.039-15.6016m15.7188 34.1992c-3.7188 4.4414-9.3594 7.3203-15.7188 7.3203-9.6015 0-17.6406-6.5976-20.039-15.5976h50.7578c.2422-1.6836.4804-3.3633.4804-5.1602 0-17.1601-13.918-31.082-31.1992-31.082-17.1601 0-31.082 13.9219-31.082 31.082 0 17.1602 13.9219 31.0782 31.082 31.0782 12.3594 0 23.039-7.1993 28.0781-17.6407M177.3594 23.7617c-9.957 0-18 8.039-18 18s8.043 18 18 18c9.961 0 18-8.039 18-18s-8.039-18-18-18"/></g></svg>